<?xml version="1.0" encoding="UTF-8" standalone="no"?> <svg width="64" height="64" viewBox="0 0 64 64" fill="none" xmlns="http://www.w3.org/2000/svg">
<path d="M35.81 28H39.4V28.01L38.2 31H23.57C23.7601 30.2447 24.0006 29.5031 24.29 28.78L24.6 28.01H27.75C27.9076 28.0132 28.0638 27.9796 28.2061 27.9119C28.3484 27.8442 28.473 27.7443 28.57 27.62C28.9387 27.1152 29.4219 26.7051 29.9799 26.4235C30.538 26.1418 31.1549 25.9967 31.78 26C32.4035 25.9996 33.0185 26.145 33.5758 26.4245C34.1332 26.7041 34.6175 27.11 34.99 27.61C35.0862 27.7351 35.2107 27.8356 35.3532 27.9034C35.4957 27.9712 35.6523 28.0043 35.81 28Z" fill="#FF6243"/>
<path d="M35.14 17H28.86C28.9516 16.4918 28.9985 15.9764 29 15.46V8.24C28.9999 8.15907 28.9898 8.07847 28.97 8H35.03C35.0102 8.07847 35.0001 8.15907 35 8.24V15.46C35.0015 15.9764 35.0483 16.4918 35.14 17Z" fill="#5AAAE7"/>
<path d="M36 4V5.76C35.9991 5.91654 35.9614 6.07068 35.89 6.21L35.11 7.79C35.079 7.85827 35.0523 7.9284 35.03 8H28.97C28.9477 7.9284 28.921 7.85827 28.89 7.79L28.11 6.21C28.0386 6.07068 28.0009 5.91654 28 5.76V4C28 3.73478 28.1054 3.48043 28.2929 3.29289C28.4804 3.10536 28.7348 3 29 3H35C35.2652 3 35.5196 3.10536 35.7071 3.29289C35.8946 3.48043 36 3.73478 36 4Z" fill="#1E81CE"/>
<path d="M35.57 18.43L39.4 28H35.81C35.6522 28.0043 35.4957 27.9712 35.3532 27.9034C35.2106 27.8357 35.0862 27.7351 34.99 27.61C34.6174 27.11 34.1331 26.7041 33.5758 26.4245C33.0185 26.145 32.4035 25.9996 31.78 26C31.1549 25.9967 30.538 26.1418 29.9799 26.4235C29.4219 26.7051 28.9386 27.1152 28.57 27.62C28.473 27.7443 28.3484 27.8442 28.2061 27.9119C28.0637 27.9796 27.9076 28.0132 27.75 28.01H24.6L28.43 18.43C28.6184 17.9681 28.7624 17.4892 28.86 17H35.14C35.2376 17.4892 35.3816 17.9681 35.57 18.43Z" fill="#5AAAE7"/>
<path d="M9.75001 28.01C9.9076 28.0132 10.0638 27.9796 10.2061 27.9119C10.3484 27.8442 10.473 27.7443 10.57 27.62C10.9387 27.1152 11.4219 26.7051 11.9799 26.4235C12.538 26.1418 13.1549 25.9967 13.78 26C14.4035 25.9996 15.0185 26.145 15.5758 26.4245C16.1332 26.7041 16.6175 27.11 16.99 27.61C17.0862 27.7351 17.2107 27.8356 17.3532 27.9034C17.4957 27.9712 17.6522 28.0043 17.81 28H21.4L21.71 28.78C21.9994 29.5031 22.2399 30.2447 22.43 31H5.57001C5.76009 30.2447 6.00063 29.5031 6.29001 28.78L6.60001 28.01H9.75001Z" fill="#FF6243"/>
<path d="M17.14 17H10.86C10.9516 16.4918 10.9985 15.9764 11 15.46V8.24C10.9999 8.15907 10.9898 8.07847 10.97 8H17.03C17.0102 8.07847 17.0001 8.15907 17 8.24V15.46C17.0015 15.9764 17.0483 16.4918 17.14 17Z" fill="#5AAAE7"/>
<path d="M17.57 18.43L21.4 28H17.81C17.6522 28.0043 17.4957 27.9712 17.3532 27.9034C17.2107 27.8357 17.0862 27.7351 16.99 27.61C16.6175 27.11 16.1332 26.7041 15.5758 26.4245C15.0185 26.145 14.4035 25.9996 13.78 26C13.1549 25.9967 12.538 26.1418 11.9799 26.4235C11.4219 26.7051 10.9387 27.1152 10.57 27.62C10.473 27.7443 10.3484 27.8442 10.2061 27.9119C10.0638 27.9796 9.90759 28.0132 9.75001 28.01H6.60001L10.43 18.43C10.6184 17.9681 10.7624 17.4892 10.86 17H17.14C17.2376 17.4892 17.3816 17.9681 17.57 18.43Z" fill="#5AAAE7"/>
<path d="M18 4V5.76C17.9991 5.91654 17.9614 6.07068 17.89 6.21L17.11 7.79C17.079 7.85827 17.0523 7.9284 17.03 8H10.97C10.9477 7.9284 10.921 7.85827 10.89 7.79L10.11 6.21C10.0386 6.07068 10.0009 5.91654 10 5.76V4C10 3.73478 10.1054 3.48043 10.2929 3.29289C10.4804 3.10536 10.7348 3 11 3H17C17.2652 3 17.5196 3.10536 17.7071 3.29289C17.8946 3.48043 18 3.73478 18 4Z" fill="#1E81CE"/>
<path d="M60 47H4C3.44772 47 3 47.4477 3 48V58C3 58.5523 3.44772 59 4 59H60C60.5523 59 61 58.5523 61 58V48C61 47.4477 60.5523 47 60 47Z" fill="#CC7400"/>
<path d="M60 31H4C3.44772 31 3 31.4477 3 32V42C3 42.5523 3.44772 43 4 43H60C60.5523 43 61 42.5523 61 42V32C61 31.4477 60.5523 31 60 31Z" fill="#CC7400"/>
<path d="M28.77 43H24H22.04H21H11V47H21H24.08H53V43H28.77Z" fill="#EE8700"/>
<path d="M53 43H11V45H53V43Z" fill="#B86800"/>
<path d="M11 43H7V47H11V43Z" fill="#CC7400"/>
<path d="M57 43H53V47H57V43Z" fill="#CC7400"/>
<path d="M57 43H53V45H57V43Z" fill="#AA6100"/>
<path d="M11 43H7V45H11V43Z" fill="#AA6100"/>
<path d="M47 10C47.2652 10 47.5196 10.1054 47.7071 10.2929C47.8946 10.4804 48 10.7348 48 11V12.76C47.9991 12.9165 47.9614 13.0707 47.89 13.21L47.11 14.79C47.079 14.8583 47.0523 14.9284 47.03 15H40.97C40.9477 14.9284 40.921 14.8583 40.89 14.79L40.11 13.21C40.0386 13.0707 40.0009 12.9165 40 12.76V11C40 10.7348 40.1054 10.4804 40.2929 10.2929C40.4804 10.1054 40.7348 10 41 10H47Z" fill="#1E81CE"/>
<path d="M47.14 24H40.86C40.9516 23.4918 40.9985 22.9764 41 22.46V15.24C40.9999 15.1591 40.9898 15.0785 40.97 15H47.03C47.0102 15.0785 47.0001 15.1591 47 15.24V22.46C47.0015 22.9764 47.0483 23.4918 47.14 24Z" fill="#5AAAE7"/>
<path d="M53 42.47V59C52.9984 59.5299 52.7872 60.0377 52.4124 60.4125C52.0377 60.7872 51.5299 60.9984 51 61H37C36.47 60.9984 35.9622 60.7872 35.5875 60.4125C35.2128 60.0377 35.0016 59.5299 35 59V42.47C34.9977 41.3049 35.1116 40.1425 35.34 39L39.75 38.99C39.9077 38.9857 40.0643 39.0188 40.2068 39.0866C40.3493 39.1543 40.4738 39.2549 40.57 39.38C40.9428 39.8797 41.4271 40.2854 41.9844 40.565C42.5417 40.8445 43.1565 40.99 43.78 40.99C44.4034 40.99 45.0183 40.8445 45.5755 40.565C46.1328 40.2854 46.6172 39.8797 46.99 39.38C47.0883 39.2579 47.2134 39.1601 47.3556 39.0942C47.4978 39.0283 47.6533 38.9961 47.81 39H52.66C52.8884 40.1425 53.0023 41.3049 53 42.47Z" fill="#5AAAE7"/>
<path d="M52.66 39H47.81C47.6533 38.9961 47.4979 39.0283 47.3556 39.0942C47.2134 39.1601 47.0883 39.2579 46.99 39.38C46.6172 39.8797 46.1329 40.2854 45.5756 40.565C45.0183 40.8445 44.4035 40.99 43.78 40.99C43.1566 40.99 42.5417 40.8445 41.9845 40.565C41.4272 40.2854 40.9428 39.8797 40.57 39.38C40.4738 39.2549 40.3494 39.1543 40.2068 39.0866C40.0643 39.0188 39.9078 38.9857 39.75 38.99L35.34 39C35.554 37.899 35.8721 36.8208 36.29 35.78L36.6 35.01H39.75C39.9076 35.0132 40.0638 34.9796 40.2061 34.9119C40.3485 34.8442 40.4731 34.7443 40.57 34.62C40.9387 34.1152 41.4219 33.7051 41.98 33.4235C42.538 33.1418 43.1549 32.9967 43.78 33C44.4035 32.9996 45.0185 33.145 45.5759 33.4245C46.1332 33.7041 46.6175 34.11 46.99 34.61C47.0862 34.7351 47.2107 34.8356 47.3532 34.9034C47.4957 34.9712 47.6523 35.0043 47.81 35H51.4L51.71 35.78C52.128 36.8208 52.4461 37.899 52.66 39Z" fill="#FF6243"/>
<path d="M49.8 31L51.4 35H47.81C47.6522 35.0043 47.4957 34.9712 47.3532 34.9034C47.2106 34.8357 47.0862 34.7351 46.99 34.61C46.6174 34.11 46.1332 33.7041 45.5758 33.4245C45.0185 33.145 44.4035 32.9996 43.78 33C43.1549 32.9967 42.538 33.1418 41.9799 33.4235C41.4219 33.7051 40.9386 34.1152 40.57 34.62C40.473 34.7443 40.3484 34.8442 40.2061 34.9119C40.0637 34.9796 39.9076 35.0132 39.75 35.01H36.6L38.2 31L39.4 28.01V28L40.43 25.43C40.6184 24.9681 40.7624 24.4892 40.86 24H47.14C47.2376 24.4892 47.3816 24.9681 47.57 25.43L49.8 31Z" fill="#5AAAE7"/>
<path d="M48 45H40C39.4477 45 39 45.4477 39 46V56C39 56.5523 39.4477 57 40 57H48C48.5523 57 49 56.5523 49 56V46C49 45.4477 48.5523 45 48 45Z" fill="#E6E7E8"/>
<path d="M17 8H11V10H17V8Z" fill="#3D9AE2"/>
<path d="M35 8H29V10H35V8Z" fill="#3D9AE2"/>
<path d="M47 15H41V17H47V15Z" fill="#3D9AE2"/>
<path d="M48 44H40C39.4696 44 38.9609 44.2107 38.5858 44.5858C38.2107 44.9609 38 45.4696 38 46V56C38 56.5304 38.2107 57.0391 38.5858 57.4142C38.9609 57.7893 39.4696 58 40 58H48C48.5304 58 49.0391 57.7893 49.4142 57.4142C49.7893 57.0391 50 56.5304 50 56V46C50 45.4696 49.7893 44.9609 49.4142 44.5858C49.0391 44.2107 48.5304 44 48 44ZM48 56H40V46H48V56Z" fill="black"/>
<path d="M32 41.999H30V43.999H32V41.999Z" fill="black"/>
<path d="M60 44C60.5299 43.9984 61.0377 43.7872 61.4125 43.4125C61.7872 43.0377 61.9984 42.5299 62 42V32C61.9984 31.4701 61.7872 30.9623 61.4125 30.5875C61.0377 30.2128 60.5299 30.0016 60 30H50.48L48.5 25.06C48.1702 24.2328 48.0005 23.3505 48 22.46V15.24L48.79 13.66C48.9287 13.3803 49.0006 13.0722 49 12.76V11C48.9984 10.4701 48.7872 9.96227 48.4125 9.58753C48.0377 9.2128 47.5299 9.00158 47 9H41C40.4701 9.00158 39.9623 9.2128 39.5875 9.58753C39.2128 9.96227 39.0016 10.4701 39 11V12.76C38.9994 13.0722 39.0713 13.3803 39.21 13.66L40 15.24V22.46C39.9995 23.3505 39.8298 24.2328 39.5 25.06L39.4 25.31L36.49 18.05C36.3338 17.654 36.2101 17.246 36.12 16.83C36.0421 16.3774 36.0019 15.9192 36 15.46L36.01 8.23L36.78 6.66C36.9253 6.38231 37.0008 6.07341 37 5.76V4C36.9984 3.47005 36.7872 2.96227 36.4125 2.58753C36.0377 2.2128 35.5299 2.00158 35 2H29C28.4701 2.00158 27.9623 2.2128 27.5875 2.58753C27.2128 2.96227 27.0016 3.47005 27 4V5.76C26.9994 6.06901 27.0713 6.37386 27.21 6.65L28 8.24V15.46C27.9993 15.9093 27.9592 16.3577 27.88 16.8C27.794 17.2312 27.6668 17.6532 27.5 18.06L23.36 28.41C23.23 28.73 23.11 29.07 23 29.41C22.89 29.07 22.77 28.73 22.64 28.41L18.49 18.05C18.3338 17.654 18.2101 17.246 18.12 16.83C18.0421 16.3774 18.0019 15.9192 18 15.46L18.01 8.23L18.78 6.66C18.9253 6.38231 19.0008 6.07341 19 5.76V4C18.9984 3.47005 18.7872 2.96227 18.4125 2.58753C18.0377 2.2128 17.5299 2.00158 17 2H11C10.4701 2.00158 9.96227 2.2128 9.58753 2.58753C9.2128 2.96227 9.00158 3.47005 9 4V5.76C8.99937 6.06901 9.0713 6.37386 9.21 6.65L10 8.24V15.46C9.99932 15.9093 9.95916 16.3577 9.88 16.8C9.79402 17.2312 9.66677 17.6532 9.5 18.06L5.36 28.41C5.16 28.92 4.98 29.45 4.82 30H4C3.47005 30.0016 2.96227 30.2128 2.58753 30.5875C2.2128 30.9623 2.00158 31.4701 2 32V42C2.00158 42.5299 2.2128 43.0377 2.58753 43.4125C2.96227 43.7872 3.47005 43.9984 4 44H6V46H4C3.47005 46.0016 2.96227 46.2128 2.58753 46.5875C2.2128 46.9623 2.00158 47.4701 2 48V58C2.00158 58.5299 2.2128 59.0377 2.58753 59.4125C2.96227 59.7872 3.47005 59.9984 4 60H28V58H4V48H34V59C34.0024 59.7949 34.3192 60.5566 34.8813 61.1187C35.4434 61.6808 36.2051 61.9976 37 62H51C51.6186 61.9968 52.2212 61.8031 52.7258 61.4452C53.2304 61.0874 53.6124 60.5827 53.82 60H60C60.5299 59.9984 61.0377 59.7872 61.4125 59.4125C61.7872 59.0377 61.9984 58.5299 62 58V48C61.9984 47.4701 61.7872 46.9623 61.4125 46.5875C61.0377 46.2128 60.5299 46.0016 60 46H58V44H60ZM50.72 36L50.78 36.15C51.0207 36.7537 51.2244 37.3715 51.39 38H47.81C47.4972 37.9968 47.1879 38.0665 46.9067 38.2037C46.6255 38.3408 46.3801 38.5415 46.19 38.79C45.9095 39.1627 45.5463 39.4651 45.1289 39.6733C44.7115 39.8816 44.2514 39.99 43.785 39.99C43.3186 39.99 42.8585 39.8816 42.4411 39.6733C42.0237 39.4651 41.6605 39.1627 41.38 38.79C41.1907 38.5375 40.9443 38.3334 40.661 38.1944C40.3777 38.0553 40.0655 37.9853 39.75 37.99L36.61 38C36.7741 37.3711 36.9778 36.7532 37.22 36.15L37.27 36.01H39.75C40.0652 36.0125 40.3766 35.9415 40.6595 35.8026C40.9425 35.6637 41.1892 35.4608 41.38 35.21C41.6542 34.8311 42.0152 34.5235 42.4328 34.313C42.8504 34.1025 43.3124 33.9951 43.78 34C44.2456 34.0009 44.7046 34.1098 45.121 34.318C45.5374 34.5262 45.8999 34.8281 46.18 35.2C46.3685 35.4533 46.6147 35.6581 46.8982 35.7972C47.1817 35.9363 47.4943 36.0058 47.81 36H50.72ZM41 11H47V12.76L46.38 14H41.62L41 12.76V11ZM46.03 23H41.97C41.99 22.8207 42 22.6404 42 22.46V16H46V22.46C46 22.6404 46.01 22.8207 46.03 23ZM41.36 25.8C41.46 25.54 41.55 25.27 41.63 25H46.37C46.45 25.27 46.54 25.54 46.64 25.8L49.92 34.01H47.79C47.3219 33.3859 46.715 32.8794 46.0173 32.5305C45.3195 32.1816 44.5501 32 43.77 32C42.9899 32 42.2205 32.1816 41.5228 32.5305C40.825 32.8794 40.2181 33.3859 39.75 34.01H38.07L41.36 25.8ZM29 4H35L34.99 5.77L34.39 7H29.61L29 5.76V4ZM34.02 16H29.98C29.99 15.82 30 15.64 30 15.46V9H34V15.46C34 15.64 34.01 15.82 34.02 16ZM29.35 18.81C29.4602 18.5451 29.557 18.2747 29.64 18H34.36C34.4397 18.2713 34.5331 18.5383 34.64 18.8L37.92 27.01H35.79C35.3219 26.3859 34.715 25.8794 34.0173 25.5305C33.3195 25.1816 32.5501 25 31.77 25C30.9899 25 30.2205 25.1816 29.5228 25.5305C28.825 25.8794 28.2181 26.3859 27.75 27.01H26.07L29.35 18.81ZM25.22 29.15L25.28 29.01H27.75C28.0652 29.0125 28.3766 28.9415 28.6595 28.8026C28.9425 28.6637 29.1892 28.4608 29.38 28.21C29.6542 27.8311 30.0152 27.5235 30.4328 27.313C30.8504 27.1025 31.3124 26.9951 31.78 27C32.2456 27.0009 32.7046 27.1098 33.121 27.318C33.5374 27.5262 33.8999 27.8281 34.18 28.2C34.3685 28.4533 34.6147 28.6581 34.8982 28.7972C35.1817 28.9363 35.4943 29.0058 35.81 29H37.92L37.52 30H24.91C25.01 29.71 25.11 29.43 25.22 29.15ZM11 4H17L16.99 5.77L16.39 7H11.61L11 5.76V4ZM16.02 16H11.98C11.99 15.82 12 15.64 12 15.46V9H16V15.46C16 15.64 16.01 15.82 16.02 16ZM11.35 18.81C11.4602 18.5451 11.557 18.2747 11.64 18H16.36C16.4397 18.2713 16.5331 18.5383 16.64 18.8L19.92 27.01H17.79C17.3219 26.3859 16.715 25.8794 16.0172 25.5305C15.3195 25.1816 14.5501 25 13.77 25C12.9899 25 12.2205 25.1816 11.5228 25.5305C10.825 25.8794 10.2181 26.3859 9.75 27.01H8.07L11.35 18.81ZM7.22 29.15L7.28 29.01H9.75C10.0652 29.0125 10.3766 28.9415 10.6595 28.8026C10.9425 28.6637 11.1892 28.4608 11.38 28.21C11.6542 27.8311 12.0152 27.5235 12.4328 27.313C12.8504 27.1025 13.3124 26.9951 13.78 27C14.2456 27.0009 14.7046 27.1098 15.121 27.318C15.5374 27.5262 15.8999 27.8281 16.18 28.2C16.3685 28.4533 16.6147 28.6581 16.8982 28.7972C17.1817 28.9363 17.4943 29.0058 17.81 29H20.72L20.78 29.15C20.89 29.43 20.99 29.71 21.09 30H6.91C7.01 29.71 7.11 29.43 7.22 29.15ZM10 46H8V44H10V46ZM34 42.47V46H12V44H28V42H4V32H36.72L35.36 35.41C34.4602 37.655 33.9986 40.0514 34 42.47ZM52 59C52 59.2652 51.8946 59.5196 51.7071 59.7071C51.5196 59.8946 51.2652 60 51 60H37C36.7348 60 36.4804 59.8946 36.2929 59.7071C36.1054 59.5196 36 59.2652 36 59V42.47C36.0058 41.6429 36.0726 40.8173 36.2 40L39.77 39.98C40.2266 40.6041 40.8242 41.1115 41.5141 41.4608C42.204 41.8101 42.9667 41.9914 43.74 41.99H43.78C44.5602 41.9946 45.3308 41.8171 46.0304 41.4716C46.73 41.1262 47.3393 40.6223 47.81 40H51.8C51.9274 40.8173 51.9942 41.6429 52 42.47V59ZM60 48V58H54V48H60ZM54 46V44H56V46H54ZM53.98 42C53.927 39.7413 53.4733 37.51 52.64 35.41L51.28 32H60V42H53.98Z" fill="black"/>
<path d="M32 57.999H30V59.999H32V57.999Z" fill="black"/>
<path d="M8 34H6V36H8V34Z" fill="black"/>
<path d="M8 38H6V40H8V38Z" fill="black"/>
<path d="M8 50H6V52H8V50Z" fill="black"/>
<path d="M8 54H6V56H8V54Z" fill="black"/>
<path d="M58 34H56V36H58V34Z" fill="black"/>
<path d="M58 38H56V40H58V38Z" fill="black"/>
<path d="M58 50H56V52H58V50Z" fill="black"/>
<path d="M58 54H56V56H58V54Z" fill="black"/>
</svg>
