<?xml version="1.0" encoding="UTF-8"?>
<!DOCTYPE svg PUBLIC "-//W3C//DTD SVG 1.1//EN" "http://www.w3.org/Graphics/SVG/1.1/DTD/svg11.dtd">
<!-- Creator: CorelDRAW -->
<svg xmlns="http://www.w3.org/2000/svg" xml:space="preserve" width="512px" height="512px" style="shape-rendering:geometricPrecision; text-rendering:geometricPrecision; image-rendering:optimizeQuality; fill-rule:evenodd; clip-rule:evenodd"
viewBox="0 0 512 512"
 xmlns:xlink="http://www.w3.org/1999/xlink">
 <defs>
  <style type="text/css">
   <![CDATA[
    .fil2 {fill:#F9F9F9}
    .fil0 {fill:#52ABB3}
    .fil1 {fill:#AADDE3}
   ]]>
  </style>
 </defs>
 <g id="Layer_x0020_1">
  <metadata id="CorelCorpID_0Corel-Layer"/>
  <path class="fil0" d="M84.9829 391c-5.61616,0 -9.07916,-6.56931 -5.6008,-11.1992 5.40002,-7.09963 19.3997,-30.0001 12.7004,-41.8005 -5.5512,-9.81617 -26.1107,-10.9831 -43.8427,-9.44885 -10.1764,29.628 -16.265,63.4136 -6.85632,84.6487 0,0.100394 0.100394,0.199607 0.100394,0.300001 4.80001,12.3 24.6001,51.4006 79.0998,40.6997 57.723,-11.2878 5.12246,-59.1687 175.199,-38.0009 19.6064,2.41536 44.2501,-5.99293 66.4526,-22.6087 0.727561,-28.069 -6.67207,-47.5915 -17.8536,-47.5915 0.100394,0 0.199607,0 0.199607,0l-1.0004 -13.9996c1.0004,-0.100394 9.79964,-0.400395 18.1997,7.69963 8.61735,8.37995 13.4221,22.5119 14.3646,41.9966 15.9544,-15.5434 26.9835,-33.717 29.8371,-49.6974 7.34057,-39.7667 1.40552,-75.9534 -16.6997,-104.416 -21.2032,60.534 -50.347,52.2899 -58.3006,56.7155 -7.51892,4.18348 -14.6445,-8.29845 -6.19963,-12.5989 13.3217,-6.78427 35.5832,4.79647 54.3061,-57.8399 -1.5756,-1.82953 -3.21025,-3.61773 -4.90631,-5.35986 -33.3001,-34.3985 -85.6999,-48.7986 -143.8,-39.5978l-16.5296 4.75395c14.1662,6.36144 40.1222,15.743 54.0297,9.04491 10.0217,-4.82718 20.6516,16.3004 -12.1004,16.3004 -5.69766,0 -11.6268,-0.810239 -17.465,-2.10473 -11.3422,50.0423 -37.0726,43.5013 -36.234,32.6044 0.300001,-3.90001 3.60001,-6.79963 7.50002,-6.49963 4.35238,0.3626 10.9252,-10.0465 15.3189,-29.8843 -12.2493,-4.12915 -22.8154,-9.4016 -28.1706,-12.2469 -31.095,14.0209 -99.7279,50.0529 -130.549,106.531 -4.10789,7.4575 -8.4768,16.6359 -12.5552,26.7308 19.0772,-1.02048 32.9895,1.53544 42.0308,7.69372 18.9934,-1.30394 31.1836,-6.04136 36.2245,-14.126 10.9855,-17.5359 -9.90003,-43.5096 -9.90003,-55.5994 0,-9.03074 13.2142,-8.97404 14.0008,-0.200788 0.816144,9.10515 42.7041,72.6687 -29.9399,83.0188 8.04333,21.678 -13.0146,50.0813 -15.5623,53.3836 -1.29922,1.79882 -3.39922,2.69883 -5.49923,2.69883zm142.601 9.19963c-9.79964,0 -19.6005,-2.70001 -28.9997,-8.10002 -37.0997,-21.1997 -63.1006,-1.39961 -64.2002,-0.600002 -7.11498,5.42836 -15.7536,-5.40828 -8.70003,-10.9996 1.39961,-1.09961 34.2001,-26.7001 79.8002,-0.600002 36.0001,20.5997 64.6986,-16.5001 65.8986,-18.1004 5.38466,-7.22128 16.7304,1.23071 11.1992,8.40003 -9.74176,12.6272 -31.9194,30.0001 -54.9982,30.0001zm-123.101 92.7995c-43.1281,0 -79.1034,-23.7414 -96.7999,-64.101 -21.3001,-49.3005 6.49963,-123.3 26.2997,-159.2 34.0501,-61.6903 104.634,-104.233 163.399,-129.1 9.10042,-4.00041 17.7001,-6.40041 27.7997,-7.50002 33.8989,-5.59962 67.799,-4.00041 97.9987,4.60041 30.0001,8.50042 56.7002,23.8997 77.1002,44.5997 38.5005,39.0001 53.7002,94.3987 42.7005,155.999 0,0 0,0.100394 0,0.100394 -5.80041,29.8005 -25.9997,59.7002 -55.6006,82.2003 -17.8997,14.2997 -54.1998,37.5001 -96.0995,32.4001 -0.100394,0 -0.100394,0 -0.199607,0 -43.0986,-6.40041 -74.8987,-7.39963 -94.4991,-3.1004 -7.50711,0.813782 -10.454,3.61891 -16.4008,9.90003 -15.7997,17.8997 -29.1001,25.6997 -52.6006,31.0005 -8.34097,0.92953 -14.9953,2.2004 -23.0977,2.2004zm159.7 -349.199c-8.48034,0 -29.2099,0.771262 -37.3997,3.2008 -8.80042,1.0004 -16.0004,2.89962 -23.8997,6.40041 -0.100394,0 -0.100394,0.100394 -0.199607,0.100394 -71.7002,29.0989 -130.2,75.0983 -156.6,122.898 -24.0001,43.6997 -42.3001,108.3 -25.6997,146.8 18.7005,42.1005 57.6002,62.2006 104.2,53.8998 43.0112,-8.70829 40.3265,-34.9773 68.901,-41.0009 21.1997,-4.69962 54.6002,-3.70041 99.3983,2.89962 54.8222,7.28506 126.162,-49.6383 136.2,-103.301 20.3505,-111.739 -55.1695,-191.897 -164.9,-191.897zm-228.106 176.892c1.50473,-7.64176 14.2052,-33.697 17.7071,-40.0926 35.3718,-64.6077 112.516,-102.937 152.5,-119.099 33.2659,-13.4457 78.7585,-11.0103 109.699,-2.40001 78.892,21.9556 119.163,90.9121 103.901,175.099 -3.98505,22.5509 -20.5371,47.3683 -44.5123,66.7408 -0.977956,2.02678 -2.84647,3.50316 -5.0575,3.9319 -25.2154,18.8587 -52.8521,27.9143 -76.2309,25.0276 -166.353,-20.667 -102.513,24.3568 -170.8,37.9005 -56.8336,11.2713 -84.7727,-24.9804 -94.7991,-49.1009 -11.0906,-26.68 -4.27797,-64.499 7.59333,-98.007zm172.907 -152.691l0 0zm13.9996 191.998c-27.4997,0 -49.0005,-21.4997 -49.0005,-49.0005 0,-27.0001 22.0005,-49.0005 49.0005,-49.0005 27.0001,0 48.9994,22.0005 48.9994,49.0005 0,27.5009 -21.4997,49.0005 -48.9994,49.0005zm0 -84.0003c-19.0005,0 -34.9997,16.0004 -34.9997,34.9997 0,19.6005 15.4004,34.9997 34.9997,34.9997 19.5993,0 34.9985,-15.4004 34.9985,-34.9997 0,-18.9993 -15.9981,-34.9997 -34.9985,-34.9997zm281.999 -164.998l-15.1997 0 -15.8008 15.8008c-6.32364,6.54333 -16.3619,-3.31536 -9.90003,-9.80082l5.95514 -6.00002 -36.0533 0 0 36.1985c4.00041,-4.00041 10.1268,-12.1701 16.0985,-6.19844 2.70001,2.70001 2.70001,7.20002 0,9.90003l-16.0985 16.0985c0,9.28467 2.35749,22.0016 -7.00042,22.0016 -9.36145,0 -7.00042,-12.6886 -7.00042,-22.2001l-15.9 -15.9c-6.37561,-6.37561 3.52442,-16.2756 9.90003,-9.90003l6.00002 6.00002 0 -36.0001 -32.1993 0 -15.8008 15.8008c-6.32364,6.54333 -16.3619,-3.31536 -9.90003,-9.80082l5.95514 -6.00002 -19.0548 0c-9.04609,0 -9.04609,-14.0008 0,-14.0008l19.2508 0c-3.98269,-4.0134 -12.1052,-10.1445 -6.1512,-16.0985 2.70001,-2.70001 7.20002,-2.70001 9.90003,0l16.0985 16.0985 31.9017 0 0 -31.206 -16.0997 -16.9949c-6.21262,-6.49963 3.91064,-16.1776 10.2,-9.60003l5.89962 6.22089 0 -19.4197c0,-9.04609 14.0008,-9.04609 14.0008,0l0 19.4197c3.87521,-4.08545 9.73822,-12.254 15.7997,-6.51971 2.8004,2.70001 2.89962,7.09963 0.300001,9.90003l-16.0997 16.9949 0 31.2048 36.2493 0c-3.98269,-4.0134 -12.1052,-10.1445 -6.1512,-16.0985 2.70001,-2.70001 7.20002,-2.70001 9.90003,0l16.0985 16.0985c9.1453,0 21.9024,-2.36103 21.9024,7.00042 0,3.90001 -3.1004,7.00042 -7.00042,7.00042zm-368.999 140.9c0,0.0992129 0,0.0992129 0,0 0,0.0992129 0,0.0992129 0,0z"/>
  <path class="fil1" d="M222.983 261.999c27.0001,0 48.9994,22.0005 48.9994,49.0005 0,27.5009 -21.4997,49.0005 -48.9994,49.0005 -27.4997,0 -49.0005,-21.4997 -49.0005,-49.0005 0,-27.0001 22.0005,-49.0005 49.0005,-49.0005zm-116.939 72.9191c8.04333,21.678 -13.0146,50.0813 -15.5623,53.3836 -1.29922,1.79882 -3.39922,2.69883 -5.49923,2.69883 -5.61616,0 -9.07916,-6.56931 -5.6008,-11.1992 5.40002,-7.09963 19.3997,-30.0001 12.7004,-41.8005 -5.5512,-9.81617 -26.1107,-10.9831 -43.8427,-9.44885 -10.1764,29.628 -16.265,63.4136 -6.85632,84.6487 0,0.100394 0.100394,0.199607 0.100394,0.300001 4.80001,12.3 24.6001,51.4006 79.0998,40.6997 57.723,-11.2878 5.12246,-59.1687 175.199,-38.0009 19.6064,2.41536 44.2501,-5.99293 66.4526,-22.6087 0.722837,-27.9013 -6.58467,-47.3588 -17.654,-47.5915l-1.0004 -13.9996c1.0004,-0.100394 9.79964,-0.400395 18.1997,7.69963 8.61735,8.37995 13.4221,22.5119 14.3646,41.9966 15.9544,-15.5434 26.9835,-33.717 29.8371,-49.6974 7.34057,-39.7667 1.40552,-75.9534 -16.6997,-104.416 -21.2032,60.534 -50.347,52.2899 -58.3006,56.7155 -7.51892,4.18348 -14.6445,-8.29845 -6.19963,-12.5989 13.3217,-6.78427 35.5832,4.79647 54.3061,-57.8399 -1.5756,-1.82953 -3.21025,-3.61773 -4.90631,-5.35986 -33.3001,-34.3985 -85.6999,-48.7986 -143.8,-39.5978l-16.5296 4.75395c14.1662,6.36144 40.1222,15.743 54.0297,9.04491 10.0217,-4.82718 20.6516,16.3004 -12.1004,16.3004 -5.69766,0 -11.6268,-0.810239 -17.465,-2.10473 -11.3422,50.0423 -37.0726,43.5013 -36.234,32.6044 0.300001,-3.90001 3.60001,-6.79963 7.50002,-6.49963 4.35238,0.3626 10.9252,-10.0465 15.3189,-29.8843 -12.2493,-4.12915 -22.8154,-9.4016 -28.1706,-12.2469 -31.095,14.0209 -99.7279,50.0529 -130.549,106.531 -4.10789,7.4575 -8.4768,16.6359 -12.5552,26.7308 19.0772,-1.02048 32.9895,1.53544 42.0308,7.69372 18.9934,-1.30394 31.1836,-6.04136 36.2245,-14.126 10.9855,-17.5359 -9.90003,-43.5096 -9.90003,-55.5994 0,-9.03074 13.2142,-8.97404 14.0008,-0.200788 0.816144,9.10515 42.7041,72.6687 -29.9399,83.0188zm19.6394 45.5824c1.39961,-1.09961 34.2001,-26.7001 79.8002,-0.600002 36.0001,20.5997 64.6986,-16.5001 65.8986,-18.1004 5.38466,-7.22128 16.7304,1.23071 11.1992,8.40003 -9.74176,12.6272 -31.9194,30.0001 -54.9982,30.0001 -9.79964,0 -19.6005,-2.70001 -28.9997,-8.10002 -37.0997,-21.1997 -63.1006,-1.39961 -64.2002,-0.600002 -7.11498,5.42836 -15.7536,-5.40828 -8.70003,-10.9996z"/>
  <path class="fil2" d="M206.284 161.501c33.2659,-13.4457 78.7585,-11.0103 109.699,-2.40001 78.892,21.9556 119.163,90.9121 103.901,175.099 -3.98505,22.5509 -20.5371,47.3683 -44.5123,66.7408 -0.977956,2.02678 -2.84647,3.50316 -5.0575,3.9319 -25.2154,18.8587 -52.8521,27.9143 -76.2309,25.0276 -166.353,-20.667 -102.513,24.3568 -170.8,37.9005 -56.8336,11.2713 -84.7727,-24.9804 -94.7991,-49.1009 -11.0906,-26.68 -4.27797,-64.499 7.59333,-98.007 1.50473,-7.64176 14.2052,-33.697 17.7071,-40.0926 35.3718,-64.6077 112.516,-102.937 152.5,-119.099zm57.899 -17.7001c-8.48034,0 -29.2099,0.771262 -37.3997,3.2008 -8.80042,1.0004 -16.0004,2.89962 -23.8997,6.40041 -0.100394,0 -0.100394,0.100394 -0.199607,0.100394 -71.7002,29.0989 -130.2,75.0983 -156.6,122.898 -24.0001,43.6997 -42.3001,108.3 -25.6997,146.8 18.7005,42.1005 57.6002,62.2006 104.2,53.8998 43.0112,-8.70829 40.3265,-34.9773 68.901,-41.0009 21.1997,-4.69962 54.6002,-3.70041 99.3983,2.89962 54.8222,7.28506 126.162,-49.6383 136.2,-103.301 20.3505,-111.739 -55.1695,-191.897 -164.9,-191.897z"/>
  <path class="fil2" d="M222.983 276c-19.0005,0 -34.9997,16.0004 -34.9997,34.9997 0,19.6005 15.4004,34.9997 34.9997,34.9997 19.5993,0 34.9985,-15.4004 34.9985,-34.9997 0,-18.9993 -15.9981,-34.9997 -34.9985,-34.9997z"/>
 </g>
</svg>
