<?xml version="1.0" encoding="UTF-8" standalone="no"?> <svg width="64" height="64" viewBox="0 0 64 64" fill="none" xmlns="http://www.w3.org/2000/svg">
<path d="M28 34.11V35H8V34.11C7.99856 32.7511 8.50092 31.44 9.41 30.43L9.58 30.25C10.4121 29.3264 10.9058 28.1476 10.9803 26.9068C11.0548 25.6659 10.7056 24.4365 9.99 23.42C9.34645 22.4955 9.00101 21.3964 9 20.27V19C9 17.9391 9.42143 16.9217 10.1716 16.1716C10.9217 15.4214 11.9391 15 13 15H16C14.9391 15 13.9217 15.4214 13.1716 16.1716C12.4214 16.9217 12 17.9391 12 19V20.27C12.001 21.3964 12.3465 22.4955 12.99 23.42C13.4368 24.2819 13.5576 25.2762 13.33 26.22C13.2095 26.926 13.2438 27.6498 13.4304 28.3412C13.6169 29.0327 13.9514 29.6754 14.4107 30.225C14.8699 30.7746 15.443 31.2179 16.0903 31.5244C16.7377 31.8309 17.4438 31.9931 18.16 32H27.58C27.86 32.6681 28.0028 33.3856 28 34.11V34.11Z" fill="#CFF09E"/>
<path d="M22 7H14V15H22V7Z" fill="#79BD9A"/>
<path d="M28 34.11V35H8V34.11C7.99856 32.7511 8.50092 31.44 9.41 30.43L9.58 30.25C9.91729 29.8748 10.2001 29.454 10.42 29H25.58C25.7999 29.454 26.0827 29.8748 26.42 30.25L26.59 30.43C27.4991 31.44 28.0015 32.7511 28 34.11V34.11Z" fill="#79BD9A"/>
<path d="M39 39V57H11C9.67392 57 8.40215 56.4732 7.46447 55.5355C6.52678 54.5979 6 53.3261 6 52V39H20V45L21 45.67C21.6091 46.0712 22.3125 46.3063 23.0404 46.3519C23.7684 46.3975 24.4956 46.2521 25.15 45.93C25.7238 45.6407 26.3574 45.49 27 45.49C27.6426 45.49 28.2762 45.6407 28.85 45.93C29.5039 46.254 30.2314 46.4006 30.9598 46.3549C31.6881 46.3093 32.3917 46.0731 33 45.67L34 45V39H39Z" fill="#79BD9A"/>
<path d="M5 35H20V39H5C4.47005 38.9984 3.96227 38.7872 3.58753 38.4125C3.2128 38.0377 3.00158 37.5299 3 37C3.00393 36.4708 3.2159 35.9644 3.59012 35.5901C3.96435 35.2159 4.47078 35.0039 5 35V35Z" fill="#A8DBA8"/>
<path d="M39.17 35C39.058 35.6305 39.0011 36.2696 39 36.91V39H34V35H39.17Z" fill="#A8DBA8"/>
<path d="M34 44V45L33 45.67C32.3917 46.0731 31.6881 46.3093 30.9598 46.3549C30.2314 46.4006 29.5039 46.254 28.85 45.93C28.2762 45.6407 27.6426 45.49 27 45.49C26.3574 45.49 25.7238 45.6407 25.15 45.93C24.4956 46.2521 23.7684 46.3975 23.0404 46.3519C22.3125 46.3063 21.6091 46.0712 21 45.67L20 45V35H24V40C24 41.0609 24.4214 42.0783 25.1716 42.8284C25.9217 43.5786 26.9391 44 28 44H34Z" fill="#CFF09E"/>
<path d="M61 55V61H39V36.91C38.9995 35.6556 39.216 34.4106 39.64 33.23C40.0655 32.0525 40.6951 30.9591 41.5 30C43.1182 28.0613 44.0031 25.6153 44 23.09V19H56V23.09C56.0011 23.7304 56.058 24.3695 56.17 25H50.41C49.4604 25.0105 48.5326 25.2868 47.732 25.7976C46.9314 26.3084 46.2898 27.0333 45.88 27.89C45.5077 28.6469 45.0442 29.3555 44.5 30C43.6951 30.9591 43.0655 32.0525 42.64 33.23C42.216 34.4106 41.9995 35.6556 42 36.91V37C42 41.7739 43.8964 46.3523 47.2721 49.7279C50.6477 53.1036 55.2261 55 60 55H61Z" fill="#CFF09E"/>
<path d="M61 37.33V61H39V37.33L41 36C41.888 35.4067 42.932 35.09 44 35.09C45.068 35.09 46.112 35.4067 47 36C47.888 36.5933 48.932 36.91 50 36.91C51.068 36.91 52.112 36.5933 53 36C53.8886 35.4082 54.9324 35.0924 56 35.0924C57.0676 35.0924 58.1114 35.4082 59 36L61 37.33Z" fill="#A8DBA8"/>
<path d="M37 5H33V9H37V5Z" fill="#79BD9A"/>
<path d="M37 3H54C54.7956 3 55.5587 3.31607 56.1213 3.87868C56.6839 4.44129 57 5.20435 57 6V8C57 8.79565 56.6839 9.55871 56.1213 10.1213C55.5587 10.6839 54.7956 11 54 11H37V3Z" fill="#79BD9A"/>
<path d="M53 11H47V19H53V11Z" fill="#79BD9A"/>
<path d="M34 26L36.631 21.791C38.1792 19.3134 39.0001 16.4506 39 13.529V11H43C42.9999 13.2013 42.5335 15.3777 41.6318 17.3858C40.73 19.394 39.4132 21.1884 37.768 22.651L34 26Z" fill="#79BD9A"/>
<path d="M56 19H44V23H56V19Z" fill="#79BD9A"/>
<path d="M52 23H48V57H52V23Z" fill="#A8DBA8"/>
<path d="M58 45C59.1046 45 60 44.1046 60 43C60 41.8954 59.1046 41 58 41C56.8954 41 56 41.8954 56 43C56 44.1046 56.8954 45 58 45Z" fill="#CFF09E"/>
<path d="M45 53C46.1046 53 47 52.1046 47 51C47 49.8954 46.1046 49 45 49C43.8954 49 43 49.8954 43 51C43 52.1046 43.8954 53 45 53Z" fill="#CFF09E"/>
<path d="M52 36.508C51.3666 36.7733 50.6867 36.91 50 36.91C49.3133 36.91 48.6334 36.7733 48 36.508V57H52V36.508Z" fill="#79BD9A"/>
<path d="M35 61H15L16 55H34L35 61Z" fill="#CFF09E"/>
<path d="M18 51H32C32.5304 51 33.0391 51.2107 33.4142 51.5858C33.7893 51.9609 34 52.4696 34 53V55H16V53C16 52.4696 16.2107 51.9609 16.5858 51.5858C16.9609 51.2107 17.4696 51 18 51V51Z" fill="#A8DBA8"/>
<path d="M59.268 29.359C57.8048 27.6012 57.0025 25.3871 57 23.1V19C57 18.7348 56.8946 18.4804 56.7071 18.2929C56.5196 18.1054 56.2652 18 56 18H54V12C55.0609 12 56.0783 11.5786 56.8284 10.8284C57.5786 10.0783 58 9.06087 58 8V6C58 4.93913 57.5786 3.92172 56.8284 3.17157C56.0783 2.42143 55.0609 2 54 2H37C36.7348 2 36.4804 2.10536 36.2929 2.29289C36.1054 2.48043 36 2.73478 36 3V4H33C32.7348 4 32.4804 4.10536 32.2929 4.29289C32.1054 4.48043 32 4.73478 32 5V9C32 9.26522 32.1054 9.51957 32.2929 9.70711C32.4804 9.89464 32.7348 10 33 10H36V11C36 11.2652 36.1054 11.5196 36.2929 11.7071C36.4804 11.8946 36.7348 12 37 12H38V13.529C38.0009 16.2634 37.2323 18.9429 35.782 21.261L33.152 25.47C33.0243 25.6741 32.9746 25.9173 33.0118 26.1551C33.0491 26.3929 33.1708 26.6093 33.3548 26.7645C33.5387 26.9198 33.7725 27.0035 34.0132 27.0003C34.2538 26.997 34.4853 26.9071 34.665 26.747L38.433 23.397C41.7061 20.4769 43.6889 16.3788 43.947 12H46V18H44C43.7348 18 43.4804 18.1054 43.2929 18.2929C43.1054 18.4804 43 18.7348 43 19V23.1C42.9987 25.3888 42.1963 27.6049 40.732 29.364C39.6098 30.7145 38.8029 32.2983 38.37 34H28.99C28.9675 32.4342 28.3789 30.9295 27.333 29.764L27.167 29.58C26.4836 28.8262 26.0774 27.862 26.0154 26.8464C25.9535 25.8308 26.2393 24.8243 26.826 23.993C27.5918 22.902 28.0019 21.601 28 20.268V19C27.9984 17.6744 27.4711 16.4036 26.5338 15.4662C25.5964 14.5289 24.3256 14.0016 23 14V7C23 6.73478 22.8946 6.48043 22.7071 6.29289C22.5196 6.10536 22.2652 6 22 6H14C13.7348 6 13.4804 6.10536 13.2929 6.29289C13.1054 6.48043 13 6.73478 13 7V14C11.6744 14.0016 10.4036 14.5289 9.46622 15.4662C8.52888 16.4036 8.00159 17.6744 8 19V20.268C7.99815 21.601 8.40818 22.902 9.174 23.993C9.76065 24.8243 10.0465 25.8308 9.98456 26.8464C9.92257 27.862 9.5164 28.8262 8.833 29.58L8.668 29.764C7.62144 30.9292 7.03244 32.434 7.01 34H5C4.20435 34 3.44129 34.3161 2.87868 34.8787C2.31607 35.4413 2 36.2044 2 37C2 37.7956 2.31607 38.5587 2.87868 39.1213C3.44129 39.6839 4.20435 40 5 40V52C5.00159 53.5908 5.63424 55.116 6.75911 56.2409C7.88399 57.3658 9.40919 57.9984 11 58H14.486L14.014 60.836C13.9902 60.9792 13.9978 61.1259 14.0364 61.2658C14.075 61.4057 14.1436 61.5356 14.2374 61.6464C14.3312 61.7571 14.4481 61.8461 14.5797 61.9072C14.7114 61.9683 14.8548 61.9999 15 62H35C35.1452 61.9999 35.2886 61.9683 35.4203 61.9072C35.5519 61.8461 35.6688 61.7571 35.7626 61.6464C35.8564 61.5356 35.925 61.4057 35.9636 61.2658C36.0022 61.1259 36.0098 60.9792 35.986 60.836L35.514 58H38V61C38 61.2652 38.1054 61.5196 38.2929 61.7071C38.4804 61.8946 38.7348 62 39 62H61C61.2652 62 61.5196 61.8946 61.7071 61.7071C61.8946 61.5196 62 61.2652 62 61V36.905C61.9981 34.1479 61.0316 31.4783 59.268 29.359V29.359ZM57.732 30.641C58.8598 31.9989 59.5998 33.6363 59.874 35.38L59.554 35.167C58.5917 34.5275 57.4741 34.1608 56.3201 34.1059C55.166 34.0509 54.0187 34.3098 53 34.855V24H55.04C55.2278 26.4391 56.1685 28.7596 57.732 30.641V30.641ZM51 35.772C50.3419 35.923 49.6581 35.923 49 35.772V24H51V35.772ZM49 37.809C49.6627 37.9115 50.3373 37.9115 51 37.809V56H49V37.809ZM38 4H54C54.5304 4 55.0391 4.21071 55.4142 4.58579C55.7893 4.96086 56 5.46957 56 6V8C56 8.53043 55.7893 9.03914 55.4142 9.41421C55.0391 9.78929 54.5304 10 54 10H38V4ZM34 8V6H36V8H34ZM38.444 20.545C39.4695 18.3483 40.0006 15.9533 40 13.529V12H41.966C41.7475 15.1544 40.5117 18.1528 38.444 20.545V20.545ZM48 12H52V18H48V12ZM45 20H55V22H45V20ZM42.268 30.641C43.8315 28.7596 44.7722 26.4391 44.96 24H47V34.859C45.9784 34.3244 44.833 34.0712 43.6813 34.1254C42.5296 34.1795 41.413 34.539 40.446 35.167L40.126 35.38C40.4002 33.6363 41.1402 31.9989 42.268 30.641V30.641ZM38 36.905V38H35V36H38.04C38.016 36.3 38 36.6 38 36.905ZM21 42H33V44.465L32.444 44.835C31.9836 45.1418 31.4505 45.3218 30.8983 45.3569C30.3462 45.392 29.7946 45.281 29.299 45.035C28.5844 44.6794 27.7972 44.4943 26.999 44.4943C26.2008 44.4943 25.4136 44.6794 24.699 45.035C24.2033 45.2811 23.6515 45.3921 23.0992 45.357C22.5469 45.3219 22.0136 45.1418 21.553 44.835L21 44.465V42ZM33 40H21V36H33V40ZM21 14H19V8H21V14ZM15 8H17V14H15V8ZM13 16H23C23.7956 16 24.5587 16.3161 25.1213 16.8787C25.6839 17.4413 26 18.2044 26 19H23C22.7348 19 22.4804 19.1054 22.2929 19.2929C22.1054 19.4804 22 19.7348 22 20C22 20.2652 22.1054 20.5196 22.2929 20.7071C22.4804 20.8946 22.7348 21 23 21H25.937C25.829 21.6642 25.5726 22.2955 25.187 22.847C24.666 23.5868 24.3059 24.4276 24.1301 25.3152C23.9542 26.2028 23.9665 27.1174 24.166 28H11.834C12.0335 27.1174 12.0458 26.2028 11.8699 25.3152C11.6941 24.4276 11.334 23.5868 10.813 22.847C10.4274 22.2955 10.171 21.6642 10.063 21H15C15.2652 21 15.5196 20.8946 15.7071 20.7071C15.8946 20.5196 16 20.2652 16 20C16 19.7348 15.8946 19.4804 15.7071 19.2929C15.5196 19.1054 15.2652 19 15 19H10C10 18.2044 10.3161 17.4413 10.8787 16.8787C11.4413 16.3161 12.2044 16 13 16V16ZM10.155 31.1L10.319 30.916C10.5753 30.6306 10.8061 30.3235 11.009 29.998H24.991C25.1935 30.3235 25.4241 30.6306 25.68 30.916L25.846 31.1C26.5627 31.8983 26.9687 32.9274 26.99 34H9.01C9.03124 32.9272 9.43765 31.8979 10.155 31.1V31.1ZM5 38C4.73478 38 4.48043 37.8946 4.29289 37.7071C4.10536 37.5196 4 37.2652 4 37C4 36.7348 4.10536 36.4804 4.29289 36.2929C4.48043 36.1054 4.73478 36 5 36H19V38H5ZM33 54H17V53C17 52.7348 17.1054 52.4804 17.2929 52.2929C17.4804 52.1054 17.7348 52 18 52H32C32.2652 52 32.5196 52.1054 32.7071 52.2929C32.8946 52.4804 33 52.7348 33 53V54ZM32 60V59C32 58.7348 31.8946 58.4804 31.7071 58.2929C31.5196 58.1054 31.2652 58 31 58C30.7348 58 30.4804 58.1054 30.2929 58.2929C30.1054 58.4804 30 58.7348 30 59V60H28V59C28 58.7348 27.8946 58.4804 27.7071 58.2929C27.5196 58.1054 27.2652 58 27 58C26.7348 58 26.4804 58.1054 26.2929 58.2929C26.1054 58.4804 26 58.7348 26 59V60H24V59C24 58.7348 23.8946 58.4804 23.7071 58.2929C23.5196 58.1054 23.2652 58 23 58C22.7348 58 22.4804 58.1054 22.2929 58.2929C22.1054 58.4804 22 58.7348 22 59V60H20V59C20 58.7348 19.8946 58.4804 19.7071 58.2929C19.5196 58.1054 19.2652 58 19 58C18.7348 58 18.4804 58.1054 18.2929 58.2929C18.1054 58.4804 18 58.7348 18 59V60H16.181L16.847 56H33.153L33.819 60H32ZM35.18 56L35 54.918V53C35 52.2044 34.6839 51.4413 34.1213 50.8787C33.5587 50.3161 32.7956 50 32 50H18C17.2044 50 16.4413 50.3161 15.8787 50.8787C15.3161 51.4413 15 52.2044 15 53V54.918L14.82 56H11C9.93913 56 8.92172 55.5786 8.17157 54.8284C7.42143 54.0783 7 53.0609 7 52V40H19V45C19 45.1646 19.0406 45.3266 19.1182 45.4718C19.1958 45.6169 19.3081 45.7407 19.445 45.832L20.445 46.499C21.1997 47.0003 22.0732 47.2939 22.9775 47.3502C23.8817 47.4066 24.7849 47.2237 25.596 46.82C26.0322 46.6034 26.5125 46.4908 26.9995 46.4908C27.4865 46.4908 27.9668 46.6034 28.403 46.82C29.214 47.2236 30.1169 47.4064 31.021 47.3501C31.9251 47.2937 32.7984 47.0002 33.553 46.499L34.553 45.832C34.6903 45.7409 34.8029 45.6172 34.8809 45.4721C34.9589 45.3269 34.9998 45.1648 35 45V40H38V56H35.18ZM40 60V37.866L41.55 36.835C42.2781 36.3579 43.1296 36.1038 44 36.1038C44.8704 36.1038 45.7219 36.3579 46.45 36.835C46.627 36.951 46.814 37.044 47 37.141V48.641C46.5639 48.2694 46.0304 48.0304 45.4628 47.9524C44.8951 47.8744 44.317 47.9606 43.7968 48.2008C43.2765 48.441 42.836 48.8252 42.5272 49.3078C42.2184 49.7905 42.0543 50.3515 42.0543 50.9245C42.0543 51.4975 42.2184 52.0585 42.5272 52.5412C42.836 53.0239 43.2765 53.408 43.7968 53.6482C44.317 53.8884 44.8951 53.9746 45.4628 53.8966C46.0304 53.8186 46.5639 53.5796 47 53.208V57C47 57.2652 47.1054 57.5196 47.2929 57.7071C47.4804 57.8946 47.7348 58 48 58H52C52.2652 58 52.5196 57.8946 52.7071 57.7071C52.8946 57.5196 53 57.2652 53 57V37.141C53.187 37.041 53.376 36.95 53.554 36.833C54.2783 36.3499 55.1294 36.0921 56 36.0921C56.8706 36.0921 57.7217 36.3499 58.446 36.833L60 37.866V40.78C59.5699 40.3891 59.0356 40.1315 58.4619 40.0386C57.8882 39.9457 57.2999 40.0214 56.7684 40.2565C56.2369 40.4916 55.7852 40.8761 55.4681 41.3631C55.151 41.8502 54.9822 42.4188 54.9822 43C54.9822 43.5812 55.151 44.1498 55.4681 44.6369C55.7852 45.1239 56.2369 45.5084 56.7684 45.7435C57.2999 45.9786 57.8882 46.0543 58.4619 45.9614C59.0356 45.8685 59.5699 45.6109 60 45.22V60H40ZM46.077 50.923C46.077 51.1208 46.0184 51.3141 45.9085 51.4786C45.7986 51.643 45.6424 51.7712 45.4597 51.8469C45.277 51.9226 45.0759 51.9424 44.8819 51.9038C44.6879 51.8652 44.5097 51.77 44.3699 51.6301C44.23 51.4903 44.1348 51.3121 44.0962 51.1181C44.0576 50.9241 44.0774 50.723 44.1531 50.5403C44.2288 50.3576 44.357 50.2014 44.5214 50.0915C44.6859 49.9816 44.8792 49.923 45.077 49.923C45.3422 49.923 45.5966 50.0284 45.7841 50.2159C45.9716 50.4034 46.077 50.6578 46.077 50.923ZM59 43C59 43.1978 58.9414 43.3911 58.8315 43.5556C58.7216 43.72 58.5654 43.8482 58.3827 43.9239C58.2 43.9996 57.9989 44.0194 57.8049 43.9808C57.6109 43.9422 57.4327 43.847 57.2929 43.7071C57.153 43.5673 57.0578 43.3891 57.0192 43.1951C56.9806 43.0011 57.0004 42.8 57.0761 42.6173C57.1518 42.4346 57.28 42.2784 57.4444 42.1685C57.6089 42.0586 57.8022 42 58 42C58.2652 42 58.5196 42.1054 58.7071 42.2929C58.8946 42.4804 59 42.7348 59 43Z" fill="#3B8686"/>
<path d="M57 55C57.5523 55 58 54.5523 58 54C58 53.4477 57.5523 53 57 53C56.4477 53 56 53.4477 56 54C56 54.5523 56.4477 55 57 55Z" fill="#3B8686"/>
<path d="M44 43C44.5523 43 45 42.5523 45 42C45 41.4477 44.5523 41 44 41C43.4477 41 43 41.4477 43 42C43 42.5523 43.4477 43 44 43Z" fill="#3B8686"/>
</svg>
